<svg xmlns="http://www.w3.org/2000/svg" height="48" viewBox="0 96 960 960" width="48"><path d="M441 1033v-74q-139-15-234.5-110T97.49 616H24v-79h73q16-139 111-234.5t233-110.011V119h79v73q137 15 232 110.5T864 537h73v79h-73.489Q849 754 753.5 849T520 958.66V1033h-79Zm38.828-163Q601 870 688 784.293t87-208Q775 454 688.172 367.5q-86.829-86.5-208-86.5Q359 281 272 367.328q-87 86.329-87 208.621 0 122.293 86.828 208.172Q358.657 870 479.828 870Zm.672-147Q418 723 376 681t-42-104.5q0-62.5 42.212-105Q418.425 429 479.5 429q62.5 0 105 42.506Q627 514.013 627 576q0 63-42.388 105-42.387 42-104.112 42Zm-.779-80Q508 643 527.5 624.157q19.5-18.844 19.5-47.294 0-28.451-19.137-48.157Q508.726 509 480.363 509T433 528.55q-19 19.549-19 47.087 0 28.951 18.721 48.157 18.722 19.206 47 19.206Zm.279-67Z"/></svg>